<svg width="240" height="51" viewBox="0 0 240 51" fill="none" xmlns="http://www.w3.org/2000/svg">
<path d="M61.2823 25.8471C61.74 26.1259 61.74 26.7858 61.2823 27.0646L48.8443 34.6416L48.8443 18.2701L61.2823 25.8471Z" fill="black"/>
<path fill-rule="evenodd" clip-rule="evenodd" d="M23.5521 2.85854C23.8295 2.41028 24.4205 2.26999 24.8723 2.54518L61.7854 25.0319C62.8533 25.6824 62.8533 27.2222 61.7854 27.8727L24.8723 50.3594C24.4205 50.6346 23.8295 50.4943 23.5521 50.0461C23.2748 49.5978 23.4162 49.0113 23.8679 48.7361L47.8854 34.1052L47.8854 18.7994L23.8679 4.16846C23.4162 3.89327 23.2748 3.30679 23.5521 2.85854ZM49.805 19.9688L49.805 32.9358L60.448 26.4523L49.805 19.9688Z" fill="black"/>
<path d="M88.8528 44.1273L77.623 8.12695L93.1719 8.12695L97.4911 29.9843L101.81 8.12695L117.359 8.12695L106.129 44.1273L88.8528 44.1273Z" fill="black"/>
<path d="M137.224 8.12695L137.224 44.1273L122.539 44.1273L122.539 8.12695L137.224 8.12695Z" fill="black"/>
<path d="M174.363 31.6986L174.363 44.1273L143.266 44.1273L143.266 8.12695L157.951 8.12695L157.951 31.6986L174.363 31.6986Z" fill="black"/>
<path d="M195.085 8.12695L195.085 44.1273L180.4 44.1273L180.4 8.12695L195.085 8.12695Z" fill="black"/>
<path d="M211.493 44.1273L200.263 8.12695L215.812 8.12695L220.131 29.9843L224.45 8.12695L239.999 8.12696L228.769 44.1273L211.493 44.1273Z" fill="black"/>
<path d="M36.0668 24.8286C37.2928 25.5711 37.2928 27.3378 36.0668 28.0803L3.87862 47.5743C2.59945 48.349 0.95893 47.4354 0.95893 45.9484L0.958931 6.9605C0.958931 5.47348 2.59944 4.55993 3.87861 5.33463L36.0668 24.8286Z" fill="#3C83F6"/>
<path fill-rule="evenodd" clip-rule="evenodd" d="M36.5679 24.0223C38.407 25.1361 38.407 27.7861 36.5679 28.8999L4.37978 48.3938C2.46103 49.5559 0.000250417 48.1856 0.000250443 45.955L0.000250908 6.96712C0.000250935 4.73658 2.46102 3.36627 4.37978 4.52831L36.5679 24.0223ZM35.5679 27.274C36.1809 26.9027 36.1809 26.0194 35.5679 25.6481L3.37971 6.15418C2.74012 5.76683 1.91987 6.22361 1.91987 6.96712L1.91987 45.955C1.91987 46.6985 2.74013 47.1553 3.37971 46.7679L35.5679 27.274Z" fill="black"/>
<path d="M13.3168 10.0239C13.3168 15.2838 11.1682 19.5478 8.51779 19.5478C5.86735 19.5478 3.71875 15.2838 3.71875 10.0239C3.71875 4.764 5.86735 0.5 8.51779 0.5C11.1682 0.5 13.3168 4.764 13.3168 10.0239Z" fill="white"/>
<path fill-rule="evenodd" clip-rule="evenodd" d="M10.6235 16.1194C11.3724 14.6333 11.8771 12.4802 11.8771 10.0239C11.8771 7.56765 11.3724 5.41455 10.6235 3.92837C9.83158 2.35675 9.00391 1.92859 8.51779 1.92859C8.03168 1.92859 7.20401 2.35675 6.41208 3.92837C5.6632 5.41455 5.15846 7.56765 5.15846 10.0239C5.15846 12.4802 5.6632 14.6333 6.41208 16.1194C7.20401 17.6911 8.03168 18.1192 8.51779 18.1192C9.00391 18.1192 9.83158 17.6911 10.6235 16.1194ZM8.51779 19.5478C11.1682 19.5478 13.3168 15.2838 13.3168 10.0239C13.3168 4.764 11.1682 0.5 8.51779 0.5C5.86735 0.5 3.71875 4.764 3.71875 10.0239C3.71875 15.2838 5.86735 19.5478 8.51779 19.5478Z" fill="black"/>
<path d="M22.434 10.0239C22.434 15.2838 20.2854 19.5478 17.635 19.5478C14.9845 19.5478 12.8359 15.2838 12.8359 10.0239C12.8359 4.764 14.9845 0.5 17.635 0.5C20.2854 0.5 22.434 4.764 22.434 10.0239Z" fill="white"/>
<path fill-rule="evenodd" clip-rule="evenodd" d="M19.7407 16.1194C20.4896 14.6333 20.9943 12.4802 20.9943 10.0239C20.9943 7.56765 20.4896 5.41455 19.7407 3.92837C18.9488 2.35675 18.1211 1.92859 17.635 1.92859C17.1489 1.92859 16.3212 2.35675 15.5293 3.92837C14.7804 5.41455 14.2757 7.56765 14.2757 10.0239C14.2757 12.4802 14.7804 14.6333 15.5293 16.1194C16.3212 17.6911 17.1489 18.1192 17.635 18.1192C18.1211 18.1192 18.9488 17.6911 19.7407 16.1194ZM17.635 19.5478C20.2854 19.5478 22.434 15.2838 22.434 10.0239C22.434 4.764 20.2854 0.5 17.635 0.5C14.9845 0.5 12.8359 4.764 12.8359 10.0239C12.8359 15.2838 14.9845 19.5478 17.635 19.5478Z" fill="black"/>
<path d="M12.3557 10.2667C12.3557 9.07613 12.1518 7.92467 11.7808 7.01939C11.4097 6.1141 10.8958 5.51441 10.3315 5.32817C9.76723 5.14193 9.18956 5.38137 8.70242 6.00342C8.21527 6.62547 7.85063 7.5893 7.67408 8.72156C7.49753 9.85381 7.52065 11.0802 7.73929 12.1801C7.95793 13.28 8.35774 14.1812 8.8668 14.7217C9.37586 15.2622 9.96077 15.4065 10.5163 15.1285C11.0719 14.8506 11.5616 14.1688 11.8974 13.2056L9.95616 10.2667L12.3557 10.2667Z" fill="black"/>
<path d="M21.4729 10.2667C21.4729 9.07613 21.269 7.92467 20.898 7.01939C20.5269 6.1141 20.013 5.51441 19.4487 5.32817C18.8844 5.14193 18.3067 5.38137 17.8196 6.00342C17.3325 6.62547 16.9678 7.5893 16.7913 8.72156C16.6147 9.85381 16.6378 11.0802 16.8565 12.1801C17.0751 13.28 17.4749 14.1812 17.984 14.7217C18.4931 15.2622 19.078 15.4065 19.6335 15.1285C20.1891 14.8506 20.6788 14.1688 21.0146 13.2056L19.0733 10.2667L21.4729 10.2667Z" fill="black"/>
</svg>
